<svg xmlns="http://www.w3.org/2000/svg" viewBox="0 0 601.38 184.22"><defs><style>.cls-1{fill:#f05051;}</style></defs><title>Asset 1</title><g id="Layer_2" data-name="Layer 2"><g id="Layer_1-2" data-name="Layer 1"><polygon class="cls-1" points="115 101.91 63.16 0.18 11.32 101.91 0 124.03 24.77 124.03 36.09 101.91 63.16 48.83 90.23 101.91 101.56 124.03 126.33 124.03 115 101.91"/><polygon class="cls-1" points="238.68 17.16 198.87 47.77 159.06 17.16 136.94 0.18 136.94 124.03 159.06 124.03 159.06 45.12 180.82 61.75 198.87 75.73 216.91 61.75 238.68 45.12 238.68 124.03 260.79 124.03 260.79 0.18 238.68 17.16"/><polygon class="cls-1" points="386.59 101.91 334.75 0.18 282.91 101.91 271.58 124.03 296.35 124.03 307.68 101.91 334.75 48.83 361.82 101.91 373.14 124.03 397.91 124.03 386.59 101.91"/><path class="cls-1" d="M498.23,124.38V124h-.18Zm-123.85,0,.35-.35h-.35ZM470.45,0l-34,44.06L402.51,0H374.56L422.5,62.1l3,3.72v58h22.12V65.46l2.65-3.36,48-62.1Z"/><polygon class="cls-1" points="590.05 101.91 538.21 0.18 486.37 101.91 475.05 124.03 499.82 124.03 511.14 101.91 538.21 48.83 565.28 101.91 576.61 124.03 601.38 124.03 590.05 101.91"/><path class="cls-1" d="M91.7,183a17.21,17.21,0,0,1-6.32,1.24,16.75,16.75,0,0,1-7.23-1.5,16.12,16.12,0,0,1-5.41-4,17.32,17.32,0,0,1-3.39-5.81,20.21,20.21,0,0,1-1.16-6.83,25.78,25.78,0,0,1,1.08-7.51,18.66,18.66,0,0,1,3.24-6.25A15.75,15.75,0,0,1,77.87,148a16.72,16.72,0,0,1,7.51-1.59,22,22,0,0,1,5.54.68,14.15,14.15,0,0,1,4.65,2.15A12.78,12.78,0,0,1,99,153a14.59,14.59,0,0,1,1.9,5.43H96.1a9.31,9.31,0,0,0-1.31-3.56,8.43,8.43,0,0,0-2.38-2.45A10.8,10.8,0,0,0,89.2,151a14.75,14.75,0,0,0-3.82-.48,11,11,0,0,0-9.48,4.78,15,15,0,0,0-2.2,4.91,22.7,22.7,0,0,0-.71,5.64,18.12,18.12,0,0,0,.81,5.43,14.21,14.21,0,0,0,2.38,4.61,11.25,11.25,0,0,0,9.2,4.37,12.83,12.83,0,0,0,5-.91,10.29,10.29,0,0,0,5.91-6.25,12.1,12.1,0,0,0,.66-4.62H85.43v-4.05h15.83v19h-3L97,178.91A12.06,12.06,0,0,1,91.7,183Z"/><path class="cls-1" d="M107.4,158.25a18.06,18.06,0,0,1,3.27-6.05,15.85,15.85,0,0,1,5.41-4.19,18.87,18.87,0,0,1,15.07,0,16,16,0,0,1,5.41,4.19,17.87,17.87,0,0,1,3.26,6.05,23.7,23.7,0,0,1,0,14.21,17.82,17.82,0,0,1-3.26,6,15.77,15.77,0,0,1-5.41,4.17,19.09,19.09,0,0,1-15.07,0,15.68,15.68,0,0,1-5.41-4.17,18,18,0,0,1-3.27-6,23.91,23.91,0,0,1,0-14.21Zm4.43,12.49a14.65,14.65,0,0,0,2.22,4.78,11.48,11.48,0,0,0,3.9,3.41,13.08,13.08,0,0,0,11.33,0,11.45,11.45,0,0,0,3.89-3.41,14.88,14.88,0,0,0,2.23-4.78,21.06,21.06,0,0,0,0-10.77,14.78,14.78,0,0,0-2.23-4.78,11.37,11.37,0,0,0-3.89-3.42,13.08,13.08,0,0,0-11.33,0,11.4,11.4,0,0,0-3.9,3.42,14.55,14.55,0,0,0-2.22,4.78,20.78,20.78,0,0,0,0,10.77Z"/><path class="cls-1" d="M151.58,147.3v32.06h19.11v4H146.77V147.3Z"/><path class="cls-1" d="M187.28,147.3q8.35,0,12.85,4.25t4.5,12.94a29.38,29.38,0,0,1-1,8.07,15.13,15.13,0,0,1-3.14,5.92,13.53,13.53,0,0,1-5.41,3.66,21.52,21.52,0,0,1-7.79,1.27H174.89V147.3Zm.41,32.06a18.66,18.66,0,0,0,2-.13,11.1,11.1,0,0,0,2.58-.6,12,12,0,0,0,2.7-1.39,9.21,9.21,0,0,0,2.41-2.48,14,14,0,0,0,1.74-3.92,20.43,20.43,0,0,0,.68-5.69,24.22,24.22,0,0,0-.63-5.79,11.13,11.13,0,0,0-2.07-4.35,9,9,0,0,0-3.72-2.73,14.88,14.88,0,0,0-5.61-.94H179.7v28Z"/><path class="cls-1" d="M239.35,182.7a14.06,14.06,0,0,1-5.79,1.26,13.21,13.21,0,0,1-5.87-1.11,9.66,9.66,0,0,1-3.44-2.68,8.16,8.16,0,0,1-1.59-3.24,12.54,12.54,0,0,1-.38-2.78,9.67,9.67,0,0,1,.68-3.74,10.65,10.65,0,0,1,1.82-2.91,13.77,13.77,0,0,1,2.68-2.32,36,36,0,0,1,3.26-2c-.5-.71-1-1.38-1.46-2a19.31,19.31,0,0,1-1.29-2,9.38,9.38,0,0,1-.91-2.08,8.4,8.4,0,0,1-.33-2.45,7.38,7.38,0,0,1,.53-2.8,6.86,6.86,0,0,1,1.57-2.38,7.59,7.59,0,0,1,2.55-1.65,9.45,9.45,0,0,1,3.49-.6,11.93,11.93,0,0,1,3.26.45,8.5,8.5,0,0,1,2.81,1.39,7.11,7.11,0,0,1,1.95,2.33,6.9,6.9,0,0,1,.73,3.21,8.06,8.06,0,0,1-.56,3,9.39,9.39,0,0,1-1.51,2.55,13.54,13.54,0,0,1-2.18,2.1,22.36,22.36,0,0,1-2.53,1.7l6.53,7.94a20,20,0,0,0,1.16-5.62h4.1q-.16,1.62-.33,2.76a16.38,16.38,0,0,1-.46,2.1,15.42,15.42,0,0,1-.68,1.9c-.27.62-.59,1.34-1,2.14l7,8.15h-5.62l-3.84-4.5A10,10,0,0,1,239.35,182.7Zm-8.65-15.27a10.42,10.42,0,0,0-2,1.71,7.82,7.82,0,0,0-1.36,2.15,7.12,7.12,0,0,0-.51,2.81,5.35,5.35,0,0,0,.58,2.5,6.06,6.06,0,0,0,1.54,1.93,7.62,7.62,0,0,0,2.2,1.23,7.24,7.24,0,0,0,2.56.46,8.5,8.5,0,0,0,4.42-1.16,10.06,10.06,0,0,0,3.26-3.14l-8.29-10Q231.84,166.67,230.7,167.43Zm5.43-7.34a9.77,9.77,0,0,0,1.57-1.36,7.14,7.14,0,0,0,1.17-1.7,4.76,4.76,0,0,0,.45-2.1,3.74,3.74,0,0,0-1.11-2.7,4.06,4.06,0,0,0-3-1.14,4.76,4.76,0,0,0-2.83.94,3.3,3.3,0,0,0-1.31,2.9,4.27,4.27,0,0,0,.33,1.62,9,9,0,0,0,.83,1.6c.34.52.71,1,1.11,1.54s.81,1,1.22,1.52C235,160.87,235.56,160.5,236.13,160.09Z"/><path class="cls-1" d="M282.86,147.3q8.36,0,12.85,4.25t4.5,12.94a29.38,29.38,0,0,1-1,8.07,15.13,15.13,0,0,1-3.14,5.92,13.53,13.53,0,0,1-5.41,3.66,21.52,21.52,0,0,1-7.79,1.27H270.47V147.3Zm.41,32.06a18.66,18.66,0,0,0,2-.13,11.1,11.1,0,0,0,2.58-.6,12,12,0,0,0,2.7-1.39,9.21,9.21,0,0,0,2.41-2.48,14,14,0,0,0,1.74-3.92,20.43,20.43,0,0,0,.68-5.69,24.22,24.22,0,0,0-.63-5.79A11.13,11.13,0,0,0,292.7,155a9,9,0,0,0-3.72-2.73,14.88,14.88,0,0,0-5.61-.94h-8.09v28Z"/><path class="cls-1" d="M311.08,147.3v36.11h-4.8V147.3Z"/><path class="cls-1" d="M334.29,147.3l14.11,36.11h-5.31l-3.94-10.88H323.88l-4.05,10.88h-4.91L329,147.3Zm3.34,21.19-6-16.84h-.1l-6.12,16.84Z"/><path class="cls-1" d="M358.62,147.3,370,177.64l11.43-30.34H388v36.11h-4.55v-30h-.1l-11.28,30H368l-11.27-30h-.1v30H352V147.3Z"/><path class="cls-1" d="M395.06,158.25a17.87,17.87,0,0,1,3.26-6.05,15.85,15.85,0,0,1,5.41-4.19,18.87,18.87,0,0,1,15.07,0,15.85,15.85,0,0,1,5.41,4.19,17.87,17.87,0,0,1,3.26,6.05,23.7,23.7,0,0,1,0,14.21,17.82,17.82,0,0,1-3.26,6,15.68,15.68,0,0,1-5.41,4.17,19.09,19.09,0,0,1-15.07,0,15.68,15.68,0,0,1-5.41-4.17,17.82,17.82,0,0,1-3.26-6,23.7,23.7,0,0,1,0-14.21Zm4.42,12.49a14.47,14.47,0,0,0,2.23,4.78,11.36,11.36,0,0,0,3.89,3.41,13.08,13.08,0,0,0,11.33,0,11.45,11.45,0,0,0,3.89-3.41,14.88,14.88,0,0,0,2.23-4.78,20.78,20.78,0,0,0,0-10.77,14.78,14.78,0,0,0-2.23-4.78,11.37,11.37,0,0,0-3.89-3.42,13.08,13.08,0,0,0-11.33,0,11.28,11.28,0,0,0-3.89,3.42,14.37,14.37,0,0,0-2.23,4.78,20.78,20.78,0,0,0,0,10.77Z"/><path class="cls-1" d="M439.48,147.3l19,29.28h.1V147.3h4.55v36.11h-5.26l-18.86-29h-.1v29h-4.55V147.3Z"/><path class="cls-1" d="M483.33,147.3q8.34,0,12.84,4.25t4.5,12.94a29,29,0,0,1-1,8.07,15.12,15.12,0,0,1-3.13,5.92,13.6,13.6,0,0,1-5.41,3.66,21.56,21.56,0,0,1-7.79,1.27H470.94V147.3Zm.4,32.06a18.83,18.83,0,0,0,2-.13,11.21,11.21,0,0,0,2.58-.6,12,12,0,0,0,2.7-1.39,9.33,9.33,0,0,0,2.4-2.48,14,14,0,0,0,1.75-3.92,20.81,20.81,0,0,0,.68-5.69,24.22,24.22,0,0,0-.63-5.79,11,11,0,0,0-2.08-4.35,9,9,0,0,0-3.71-2.73,14.9,14.9,0,0,0-5.62-.94h-8.09v28Z"/><path class="cls-1" d="M524.62,152.23a10.21,10.21,0,0,0-6.14-1.75,14.87,14.87,0,0,0-3,.31,7.88,7.88,0,0,0-2.6,1,5.19,5.19,0,0,0-1.82,1.9,5.78,5.78,0,0,0-.69,3,3.75,3.75,0,0,0,1,2.71,7.2,7.2,0,0,0,2.63,1.69,22.21,22.21,0,0,0,3.72,1.09c1.38.29,2.79.6,4.22.94s2.84.73,4.22,1.18a14.37,14.37,0,0,1,3.72,1.85,8.91,8.91,0,0,1,2.63,2.93,10.28,10.28,0,0,1-.3,9.39,10.66,10.66,0,0,1-3.32,3.33,14.2,14.2,0,0,1-4.52,1.87,21.85,21.85,0,0,1-5,.59,21.34,21.34,0,0,1-5.74-.76,14.43,14.43,0,0,1-4.76-2.3,11,11,0,0,1-3.23-3.95,12.6,12.6,0,0,1-1.19-5.69H509a7.84,7.84,0,0,0,3.21,6.63,10,10,0,0,0,3.36,1.57,15.78,15.78,0,0,0,3.95.5,18.14,18.14,0,0,0,3.26-.3,9.62,9.62,0,0,0,3-1,5.56,5.56,0,0,0,2.93-5.23,4.59,4.59,0,0,0-1-3,7.27,7.27,0,0,0-2.63-1.89,19.12,19.12,0,0,0-3.72-1.19l-4.22-.94c-1.44-.32-2.84-.69-4.23-1.11a15.16,15.16,0,0,1-3.71-1.67,7.49,7.49,0,0,1-3.62-6.8,9.59,9.59,0,0,1,1.11-4.73,9.75,9.75,0,0,1,3-3.29,13.22,13.22,0,0,1,4.2-1.92,18.61,18.61,0,0,1,4.83-.63,19.29,19.29,0,0,1,5.16.66,11.66,11.66,0,0,1,4.17,2.07,10,10,0,0,1,2.83,3.56,12.85,12.85,0,0,1,1.14,5.14h-4.55A7.52,7.52,0,0,0,524.62,152.23Z"/></g></g></svg>